<?xml version="1.0" encoding="utf-8"?>
<svg version="1.1" id="Ebene_1" x="0px" y="0px" viewBox="0 0 500 500" style="enable-background:new 0 0 841.9 595.3;" xmlns="http://www.w3.org/2000/svg">
  <style type="text/css">
	.st0{fill:#D62725;}
</style>
  <g transform="matrix(1.263129, 0, 0, 1.263129, -281.714172, -125.970337)" style="">
    <circle style="fill: rgb(255, 255, 255);" cx="420.95" cy="297.65" r="190.482"/>
    <path class="st0" d="M 420.9 102.25 C 313 102.25 225.5 189.75 225.5 297.65 C 225.5 405.55 313 493.05 420.9 493.05 C 528.8 493.05 616.4 405.55 616.4 297.65 C 616.4 189.75 528.9 102.25 420.9 102.25 Z M 480.4 154.45 L 488.3 154.45 C 490.7 150.55 492.7 147.45 492.8 147.65 C 492.9 147.85 494.7 150.85 496.9 154.45 L 504.7 154.45 C 504.7 154.45 503 157.35 500.8 161.05 C 503 164.65 504.7 167.65 504.7 167.65 L 496.8 167.65 C 494.4 171.55 492.4 174.65 492.3 174.45 L 488.2 167.65 L 480.4 167.65 C 480.4 167.65 482.1 164.75 484.3 161.05 L 480.4 154.45 Z M 335.8 154.45 L 343.7 154.45 C 346.1 150.55 348.1 147.45 348.2 147.65 C 348.3 147.85 350.1 150.85 352.3 154.45 L 360.1 154.45 C 360.1 154.45 358.4 157.35 356.2 161.05 C 358.4 164.65 360.1 167.65 360.1 167.65 L 352.2 167.65 C 349.8 171.55 347.8 174.65 347.7 174.45 L 343.6 167.65 L 335.8 167.65 C 335.8 167.65 337.5 164.75 339.7 161.05 L 335.8 154.45 Z M 310.3 252.05 L 321.8 252.05 L 321.8 209.75 L 317.2 209.75 L 317.2 179.05 L 379.5 179.05 L 379.5 209.75 L 374.9 209.75 L 374.9 252.05 L 394.7 252.05 L 394.7 210.05 L 389.5 210.05 L 389.5 194.65 L 393.9 194.65 C 393.9 180.85 404.4 169.45 417.8 168.05 L 417.8 157.05 L 408.4 157.05 L 408.4 151.45 L 417.8 151.45 L 417.8 141.15 L 423.4 141.15 L 423.4 151.45 L 432.8 151.45 L 432.8 157.05 L 423.4 157.05 L 423.4 168.05 C 436.8 169.45 447.3 180.85 447.3 194.65 L 451.7 194.65 L 451.7 210.05 L 447.7 210.05 L 447.7 252.05 L 465.9 252.05 L 465.9 209.75 L 461.3 209.75 L 461.3 179.05 L 523.6 179.05 L 523.6 209.75 L 519 209.75 L 519 252.05 L 530.9 252.05 L 530.9 267.45 L 519 267.45 L 465.9 267.45 L 447.9 267.45 L 394.7 267.45 L 374.9 267.45 L 321.7 267.45 L 310.2 267.45 L 310.2 252.05 Z M 315.2 276.15 L 526.1 276.15 C 526.1 300.45 528.5 322.75 532.2 342.45 L 448.6 342.45 L 448.6 327.25 L 448.6 319.25 L 440.6 319.25 L 438.4 319.25 C 440.8 315.85 442.1 311.65 442.1 307.15 C 442.1 295.35 432.5 285.65 420.6 285.65 C 408.8 285.65 399.1 295.25 399.1 307.15 C 399.1 311.65 400.5 315.75 402.9 319.25 L 400.7 319.25 L 392.7 319.25 L 392.7 327.25 L 392.7 342.45 L 309.1 342.45 C 312.8 322.75 315.2 300.45 315.2 276.15 Z M 420.7 480.85 C 408.2 480.85 398 470.75 398 458.15 C 398 445.55 408.1 435.45 420.7 435.45 C 433.3 435.45 443.4 445.55 443.4 458.15 C 443.4 470.75 433.2 480.85 420.7 480.85 Z M 435.4 415.45 L 433.7 430.45 C 429.8 428.55 425.3 427.55 420.7 427.55 C 416 427.55 411.5 428.65 407.5 430.55 L 406 415.45 L 435.4 415.45 Z M 409 375.65 L 432.4 375.65 L 429.1 407.45 L 412.4 407.45 L 409 375.65 Z M 435.9 367.65 L 405.4 367.65 C 402.8 367.65 400.7 365.55 400.7 362.95 L 400.7 327.15 L 440.6 327.15 L 440.6 362.95 C 440.6 365.55 438.5 367.65 435.9 367.65 Z M 407.2 307.15 C 407.2 299.75 413.2 293.65 420.7 293.65 C 428.2 293.65 434.2 299.65 434.2 307.15 C 434.2 314.55 428.2 320.65 420.7 320.65 C 413.2 320.65 407.2 314.55 407.2 307.15 Z M 285.1 420.75 C 291.5 406.65 300.9 382.45 307.5 350.85 L 392.8 350.85 L 392.8 362.95 C 392.8 368.35 396.2 372.95 400.9 374.75 L 404.3 407.45 L 397.2 407.45 L 398.1 416.25 L 400 435.65 C 393.9 441.25 390.1 449.25 390.1 458.25 C 390.1 466.65 393.5 474.25 398.9 479.75 C 354 474.25 314 452.65 285.1 420.75 Z M 442.4 479.75 C 447.9 474.25 451.3 466.55 451.3 458.15 C 451.3 449.15 447.4 440.95 441.1 435.35 L 443.3 416.35 L 444.3 407.45 L 437 407.45 L 440.4 374.75 C 445.1 372.95 448.5 368.35 448.5 362.95 L 448.5 350.85 L 533.9 350.85 C 540.6 382.75 550.1 407.05 556.4 421.15 C 527.4 452.95 487.4 474.45 442.4 479.75 Z"/>
  </g>
</svg>